<mxfile host="app.diagrams.net" modified="2023-03-02T16:26:36.525Z" agent="5.0 (X11; Ubuntu)" etag="Syfzs7xIZBxVkcjTedFX" version="20.8.22" type="github">
  <diagram name="Страница 1" id="Tn5w8StCoS7VMpzthSma">
    <mxGraphModel dx="544" dy="318" grid="1" gridSize="10" guides="1" tooltips="1" connect="1" arrows="1" fold="1" page="1" pageScale="1" pageWidth="827" pageHeight="1169" math="0" shadow="0">
      <root>
        <mxCell id="0" />
        <mxCell id="1" parent="0" />
        <mxCell id="CQyeInGpSQFyOS3ROyyY-1" value="StateHolder" style="rounded=1;whiteSpace=wrap;html=1;" vertex="1" parent="1">
          <mxGeometry x="260" y="400" width="210" height="40" as="geometry" />
        </mxCell>
        <mxCell id="CQyeInGpSQFyOS3ROyyY-2" value="Репозиторий" style="rounded=1;whiteSpace=wrap;html=1;" vertex="1" parent="1">
          <mxGeometry x="260" y="470" width="210" height="40" as="geometry" />
        </mxCell>
        <mxCell id="CQyeInGpSQFyOS3ROyyY-3" value="База Данных" style="rounded=1;whiteSpace=wrap;html=1;" vertex="1" parent="1">
          <mxGeometry x="260" y="540" width="210" height="40" as="geometry" />
        </mxCell>
        <mxCell id="CQyeInGpSQFyOS3ROyyY-5" value="" style="endArrow=classic;html=1;rounded=0;exitX=0.094;exitY=1.027;exitDx=0;exitDy=0;exitPerimeter=0;entryX=0.095;entryY=0;entryDx=0;entryDy=0;entryPerimeter=0;fillColor=#d5e8d4;strokeColor=#82b366;" edge="1" parent="1" source="CQyeInGpSQFyOS3ROyyY-1" target="CQyeInGpSQFyOS3ROyyY-2">
          <mxGeometry width="50" height="50" relative="1" as="geometry">
            <mxPoint x="280" y="490" as="sourcePoint" />
            <mxPoint x="330" y="440" as="targetPoint" />
            <Array as="points">
              <mxPoint x="280" y="460" />
            </Array>
          </mxGeometry>
        </mxCell>
        <mxCell id="CQyeInGpSQFyOS3ROyyY-6" value="" style="endArrow=classic;html=1;rounded=0;entryX=0.095;entryY=0;entryDx=0;entryDy=0;entryPerimeter=0;exitX=0.092;exitY=1;exitDx=0;exitDy=0;exitPerimeter=0;fillColor=#d5e8d4;strokeColor=#82b366;" edge="1" parent="1" source="CQyeInGpSQFyOS3ROyyY-2" target="CQyeInGpSQFyOS3ROyyY-3">
          <mxGeometry width="50" height="50" relative="1" as="geometry">
            <mxPoint x="240" y="490" as="sourcePoint" />
            <mxPoint x="290" y="440" as="targetPoint" />
          </mxGeometry>
        </mxCell>
        <mxCell id="CQyeInGpSQFyOS3ROyyY-8" value="" style="endArrow=classic;html=1;rounded=0;entryX=0.857;entryY=1;entryDx=0;entryDy=0;entryPerimeter=0;exitX=0.856;exitY=0.016;exitDx=0;exitDy=0;exitPerimeter=0;fillColor=#f8cecc;strokeColor=#b85450;" edge="1" parent="1" source="CQyeInGpSQFyOS3ROyyY-2" target="CQyeInGpSQFyOS3ROyyY-1">
          <mxGeometry width="50" height="50" relative="1" as="geometry">
            <mxPoint x="310" y="510" as="sourcePoint" />
            <mxPoint x="360" y="460" as="targetPoint" />
          </mxGeometry>
        </mxCell>
        <mxCell id="CQyeInGpSQFyOS3ROyyY-9" value="" style="endArrow=classic;html=1;rounded=0;entryX=0.838;entryY=1.021;entryDx=0;entryDy=0;entryPerimeter=0;exitX=0.839;exitY=0.002;exitDx=0;exitDy=0;exitPerimeter=0;fillColor=#f8cecc;strokeColor=#b85450;" edge="1" parent="1">
          <mxGeometry width="50" height="50" relative="1" as="geometry">
            <mxPoint x="440" y="540" as="sourcePoint" />
            <mxPoint x="440" y="511" as="targetPoint" />
          </mxGeometry>
        </mxCell>
      </root>
    </mxGraphModel>
  </diagram>
</mxfile>
